<?xml version="1.0" encoding="UTF-8"?>
<svg id="Layer_1" xmlns="http://www.w3.org/2000/svg" version="1.1" xmlns:xlink="http://www.w3.org/1999/xlink" viewBox="0 0 308.41 117.35">
  <!-- Generator: Adobe Illustrator 29.4.0, SVG Export Plug-In . SVG Version: 2.1.0 Build 152)  -->
  <defs>
    <style>
      .st0 {
        fill: #820b0d;
      }

      .st1 {
        font-family: MyriadPro-Regular, 'Myriad Pro';
        font-size: 17.98px;
      }

      .st1, .st2 {
        fill: #fff;
      }

      .st3 {
        fill: url(#linear-gradient1);
      }

      .st4 {
        fill: #00b8e4;
      }

      .st5 {
        fill: url(#linear-gradient);
      }
    </style>
    <linearGradient id="linear-gradient" x1="29.37" y1="63.43" x2="48.59" y2="30.54" gradientTransform="translate(-17.71 25.94) rotate(-30)" gradientUnits="userSpaceOnUse">
      <stop offset="0" stop-color="#029af8"/>
      <stop offset="1" stop-color="#146cec"/>
    </linearGradient>
    <linearGradient id="linear-gradient1" x1="46.78" y1="78.45" x2="61.98" y2="53.06" gradientTransform="translate(-26.33 35.79) rotate(-30)" gradientUnits="userSpaceOnUse">
      <stop offset="0" stop-color="#25b1e5"/>
      <stop offset="1" stop-color="#1b86f2"/>
    </linearGradient>
  </defs>
  <rect class="st0" x="206.27" y="84.11" width="93.26" height="20.83"/>
  <rect class="st5" x="31.68" y="22.9" width="15.73" height="46.23" rx="7.87" ry="7.87" transform="translate(28.31 -13.61) rotate(30)"/>
  <rect class="st3" x="45.75" y="45.3" width="15.73" height="43.44" rx="7.87" ry="7.87" transform="translate(40.7 -17.83) rotate(30)"/>
  <circle class="st4" cx="73.36" cy="78.42" r="8.14"/>
  <circle class="st4" cx="20.84" cy="78.42" r="8.14"/>
  <g>
    <path class="st2" d="M101.01,80.02c-.83,0-1.54-.29-2.11-.86-.57-.57-.86-1.28-.86-2.11v-29.66c0-.82.29-1.54.85-2.13.57-.6,1.29-.9,2.12-.9h11.05c4.69,0,8.29,1.25,10.7,3.73,2.01,2.01,3.04,4.65,3.04,7.82s-1.02,5.81-3.04,7.83c-2.4,2.47-6,3.72-10.69,3.72h-8.03v9.58c0,.84-.3,1.55-.9,2.12-.59.57-1.3.85-2.13.85ZM111.63,61.72c3.1,0,5.35-.64,6.67-1.91,1.01-.95,1.5-2.22,1.5-3.89,0-2.65-1.3-4.37-3.97-5.26-1.08-.36-2.49-.54-4.21-.54h-7.59v11.6h7.59Z"/>
    <path class="st2" d="M112.06,45.16c4.49,0,7.87,1.16,10.13,3.49,1.87,1.87,2.81,4.3,2.81,7.27s-.94,5.4-2.81,7.27c-2.26,2.33-5.64,3.49-10.13,3.49h-8.82v10.37c0,.61-.22,1.13-.65,1.55s-.96.63-1.58.63-1.13-.21-1.55-.63c-.42-.42-.63-.94-.63-1.55v-29.66c0-.61.21-1.14.63-1.58.42-.44.94-.65,1.55-.65h11.05ZM111.63,62.51c3.33,0,5.74-.71,7.22-2.13,1.16-1.1,1.74-2.58,1.74-4.46,0-3.01-1.5-5.01-4.51-6.01-1.16-.39-2.65-.58-4.46-.58h-8.39v13.18h8.39Z"/>
    <path class="st2" d="M132.4,80.02c-.84,0-1.56-.29-2.14-.86-.57-.57-.86-1.28-.86-2.11v-20.79c0-.86.29-1.59.86-2.16.57-.57,1.29-.86,2.14-.86s1.56.29,2.14.86c.57.57.86,1.3.86,2.16v20.79c0,.83-.29,1.54-.86,2.11-.57.57-1.29.86-2.14.86Z"/>
    <path class="st2" d="M130.82,54.66c.42-.42.95-.63,1.58-.63s1.15.21,1.58.63c.42.42.63.95.63,1.6v20.79c0,.61-.21,1.13-.63,1.55-.42.42-.95.63-1.58.63s-1.16-.21-1.58-.63c-.42-.42-.63-.94-.63-1.55v-20.79c0-.65.21-1.18.63-1.6Z"/>
    <path class="st2" d="M153.36,80.27c-3.99,0-7.22-1.27-9.59-3.79-2.39-2.5-3.61-5.81-3.61-9.85s1.22-7.35,3.61-9.86c2.37-2.51,5.6-3.78,9.59-3.78s7.18,1.27,9.59,3.78c2.4,2.54,3.61,5.85,3.61,9.86s-1.21,7.32-3.61,9.85c-2.41,2.51-5.64,3.79-9.59,3.79ZM153.36,58.6c-3.17,0-5.31,1.38-6.54,4.22-.44,1.02-.66,2.3-.66,3.78s.22,2.76.66,3.78c.44,1.02,1,1.85,1.67,2.47.67.62,1.44,1.08,2.29,1.36.87.29,1.73.44,2.56.44s1.69-.15,2.56-.44c.85-.29,1.63-.74,2.33-1.35,1.58-1.43,2.35-3.49,2.35-6.29s-.77-4.73-2.36-6.2c-1.31-1.19-2.9-1.78-4.84-1.78Z"/>
    <path class="st2" d="M153.36,53.78c3.75,0,6.75,1.18,9.02,3.54,2.26,2.39,3.39,5.49,3.39,9.31s-1.13,6.92-3.39,9.31c-2.26,2.36-5.27,3.54-9.02,3.54s-6.79-1.18-9.02-3.54c-2.26-2.36-3.39-5.46-3.39-9.31s1.13-6.95,3.39-9.31c2.23-2.36,5.23-3.54,9.02-3.54ZM147.96,73.44c.76.7,1.62,1.2,2.57,1.53.95.32,1.89.48,2.81.48s1.86-.16,2.81-.48c.95-.32,1.82-.82,2.59-1.5,1.75-1.58,2.62-3.88,2.62-6.88s-.87-5.17-2.62-6.79c-1.45-1.32-3.25-1.99-5.38-1.99-3.49,0-5.91,1.57-7.27,4.7-.48,1.13-.73,2.5-.73,4.1s.24,2.96.73,4.1c.48,1.13,1.11,2.04,1.87,2.74Z"/>
    <path class="st2" d="M191.8,80.02c-.83,0-1.54-.29-2.11-.86-.57-.57-.86-1.28-.86-2.11v-13.28c0-1.65-.36-2.95-1.07-3.85-.66-.84-1.83-1.27-3.47-1.27-2.51,0-4.92,1.39-7.16,4.14v14.26c0,.84-.3,1.55-.9,2.12-.59.57-1.3.85-2.13.85s-1.54-.29-2.11-.86c-.57-.57-.86-1.28-.86-2.11v-20.79c0-.86.29-1.59.86-2.16.57-.57,1.28-.86,2.11-.86s1.54.29,2.13.85c.6.57.9,1.3.9,2.17v.09c.79-.72,1.5-1.26,2.15-1.65,1.96-1.13,3.86-1.71,5.66-1.71s3.26.28,4.43.83c1.16.55,2.17,1.31,2.98,2.26,1.64,1.92,2.47,4.34,2.47,7.2v13.77c0,.84-.3,1.55-.9,2.12-.59.57-1.3.85-2.13.85Z"/>
    <path class="st2" d="M184.28,57.86c-2.84,0-5.49,1.55-7.95,4.65v14.54c0,.61-.22,1.13-.65,1.55s-.96.63-1.58.63-1.13-.21-1.55-.63c-.42-.42-.63-.94-.63-1.55v-20.79c0-.65.21-1.18.63-1.6.42-.42.94-.63,1.55-.63s1.14.21,1.58.63c.44.42.65.95.65,1.6v1.99c1.29-1.36,2.41-2.31,3.34-2.86,1.84-1.07,3.59-1.6,5.26-1.6s3.03.25,4.1.75c1.07.5,1.97,1.19,2.71,2.06,1.52,1.78,2.28,4.01,2.28,6.69v13.77c0,.61-.22,1.13-.65,1.55-.44.42-.96.63-1.58.63s-1.13-.21-1.55-.63c-.42-.42-.63-.94-.63-1.55v-13.28c0-1.84-.41-3.29-1.24-4.34-.82-1.05-2.19-1.58-4.1-1.58Z"/>
    <path class="st2" d="M208.03,80.02c-.83,0-1.54-.29-2.11-.86-.57-.57-.86-1.28-.86-2.11v-26.98h-9.09c-.8,0-1.47-.27-2.01-.81s-.81-1.22-.81-2.01.27-1.47.8-2.03c.53-.56,1.24-.85,2.03-.85h24.14c.8,0,1.48.28,2.04.84.56.56.84,1.24.84,2.04s-.29,1.49-.85,2.03c-.56.53-1.24.8-2.03.8h-9.05v26.98c0,.84-.3,1.55-.9,2.12-.59.57-1.3.85-2.13.85Z"/>
    <path class="st2" d="M221.58,45.76c.4.4.61.9.61,1.48s-.2,1.07-.61,1.45c-.4.39-.9.58-1.48.58h-9.84v27.77c0,.61-.22,1.13-.65,1.55s-.96.63-1.58.63-1.13-.21-1.55-.63c-.42-.42-.63-.94-.63-1.55v-27.77h-9.89c-.58,0-1.07-.19-1.45-.58s-.58-.87-.58-1.45.19-1.07.58-1.48c.39-.4.87-.61,1.45-.61h24.14c.58,0,1.07.2,1.48.61Z"/>
    <path class="st2" d="M233.67,80.27c-4.18,0-7.48-1.2-9.82-3.58-2.34-2.37-3.52-5.76-3.52-10.06,0-3.72.99-6.87,2.93-9.36,2.22-2.84,5.39-4.28,9.45-4.28,3.84,0,6.93,1.33,9.18,3.96,2.09,2.43,3.15,5.48,3.15,9.05,0,.82-.28,1.53-.83,2.1-.56.58-1.3.87-2.2.87h-15.5c.33,1.6,1.01,2.87,2.08,3.86,1.23,1.15,3.01,1.73,5.28,1.73s4.34-.4,5.9-1.18c.7-.35,1.31-.52,1.86-.52.62,0,1.21.25,1.75.74.55.5.84,1.13.84,1.8,0,1.14-.51,2.01-1.46,2.52-.71.38-1.35.7-1.9.96-.58.27-1.22.52-1.9.72-1.53.44-3.3.66-5.27.66ZM239,63.8c-.25-1.68-.96-3.01-2.16-4.03-1.15-.98-2.51-1.46-4.14-1.46-2.58,0-4.41,1.11-5.6,3.4-.32.6-.54,1.3-.66,2.09h12.55Z"/>
    <path class="st2" d="M228.05,73.41c1.39,1.29,3.33,1.94,5.82,1.94s4.57-.42,6.25-1.26c.58-.29,1.08-.44,1.5-.44s.82.18,1.21.53c.39.36.58.76.58,1.21,0,.84-.35,1.45-1.04,1.82-.7.37-1.32.69-1.87.95-.55.26-1.15.48-1.79.68-1.45.42-3.13.63-5.04.63-3.97,0-7.06-1.11-9.26-3.34-2.2-2.23-3.3-5.4-3.3-9.5,0-3.55.92-6.51,2.76-8.87,2.07-2.65,5.01-3.97,8.82-3.97s6.48,1.23,8.58,3.68c1.97,2.29,2.96,5.14,2.96,8.53,0,.61-.2,1.13-.61,1.55-.4.42-.95.63-1.62.63h-16.43c.26,2.2,1.08,3.94,2.47,5.23ZM232.7,57.52c-2.88,0-4.98,1.28-6.3,3.83-.48.91-.76,1.99-.82,3.25h14.3c-.13-2.29-.97-4.1-2.52-5.43-1.29-1.1-2.84-1.65-4.65-1.65Z"/>
    <path class="st2" d="M261.54,80.27c-3.78,0-7.01-1.21-9.6-3.6-2.74-2.54-4.13-5.91-4.13-10.03s1.39-7.5,4.13-10.03c2.6-2.39,5.83-3.6,9.6-3.6,2.03,0,3.74.27,5.07.81,1.29.52,2.34,1.04,3.12,1.55.98.64,1.47,1.4,1.47,2.26,0,.77-.24,1.45-.72,2.02-.51.6-1.07.91-1.67.91-.68,0-1.38-.2-2.08-.58-1.52-.83-3.14-1.26-4.8-1.26-2.64,0-4.61.71-6.02,2.16-1.41,1.46-2.1,3.35-2.1,5.77s.69,4.31,2.1,5.77c1.41,1.45,3.38,2.16,6.02,2.16,1.67,0,3.28-.42,4.8-1.26.71-.39,1.34-.58,1.93-.58.48,0,1.18.16,1.82.91.48.57.72,1.24.72,2.02,0,.86-.5,1.63-1.47,2.26-2.42,1.57-5.17,2.36-8.19,2.36Z"/>
    <path class="st2" d="M261.93,75.35c1.81,0,3.54-.45,5.19-1.36.58-.32,1.1-.48,1.55-.48s.86.21,1.21.63c.36.42.53.92.53,1.5s-.37,1.11-1.11,1.6c-2.29,1.49-4.88,2.23-7.76,2.23-3.59,0-6.61-1.13-9.06-3.39-2.59-2.39-3.88-5.54-3.88-9.45s1.29-7.06,3.88-9.45c2.46-2.26,5.48-3.39,9.06-3.39,1.94,0,3.53.25,4.77.75,1.24.5,2.24.99,2.98,1.48.74.48,1.11,1.02,1.11,1.6s-.18,1.08-.53,1.5c-.36.42-.71.63-1.07.63-.55,0-1.11-.16-1.7-.48-1.65-.9-3.38-1.36-5.19-1.36-2.84,0-5.04.8-6.59,2.4-1.55,1.6-2.33,3.71-2.33,6.33s.78,4.73,2.33,6.33c1.55,1.6,3.75,2.4,6.59,2.4Z"/>
    <path class="st2" d="M296.05,80.02c-.83,0-1.54-.29-2.11-.86-.57-.57-.86-1.28-.86-2.11v-13.28c0-1.65-.36-2.95-1.07-3.85-.66-.84-1.83-1.27-3.47-1.27-2.51,0-4.92,1.39-7.16,4.14v14.26c0,.84-.3,1.55-.9,2.12-.59.57-1.3.85-2.13.85s-1.54-.29-2.11-.86c-.57-.57-.86-1.28-.86-2.11v-31.46c0-.86.29-1.59.86-2.16.57-.57,1.28-.86,2.11-.86s1.54.29,2.13.85c.6.57.9,1.3.9,2.17v10.75c.79-.72,1.5-1.26,2.15-1.65,1.96-1.13,3.86-1.71,5.66-1.71s3.26.28,4.43.83c1.16.55,2.17,1.31,2.98,2.26,1.64,1.92,2.47,4.34,2.47,7.2v13.77c0,.84-.3,1.55-.9,2.12-.59.57-1.3.85-2.13.85Z"/>
    <path class="st2" d="M288.54,57.86c-2.84,0-5.49,1.55-7.95,4.65v14.54c0,.61-.22,1.13-.65,1.55s-.96.63-1.58.63-1.13-.21-1.55-.63c-.42-.42-.63-.94-.63-1.55v-31.46c0-.65.21-1.18.63-1.6s.94-.63,1.55-.63,1.14.21,1.58.63c.44.42.65.95.65,1.6v12.65c1.29-1.36,2.41-2.31,3.34-2.86,1.84-1.07,3.59-1.6,5.26-1.6s3.03.25,4.1.75c1.07.5,1.97,1.19,2.71,2.06,1.52,1.78,2.28,4.01,2.28,6.69v13.77c0,.61-.22,1.13-.65,1.55-.44.42-.96.63-1.58.63s-1.13-.21-1.55-.63c-.42-.42-.63-.94-.63-1.55v-13.28c0-1.84-.41-3.29-1.24-4.34-.82-1.05-2.19-1.58-4.1-1.58Z"/>
  </g>
  <text class="st1" transform="translate(210.67 99.56)"><tspan x="0" y="0">Sytsem Ltd.</tspan></text>
</svg>